# xmcd
#
# Track frame offsets:
#	150
#	19806
#	35339
#	53416
#	70847
#	88552
#	103892
#	120281
#	133181
#	152397
#	170737
#	193798
#	204896
#	233506
#
# Disc length: 3140 seconds
#
# Revision: 1
# Processed by: cddbd v1.5.1PL2 Copyright (c) Steve Scherf et al.
# Submitted via: audiograbber 1.83.01
#
DISCID=ac0c420e
DTITLE=Various Artist - CMA Awards 2003
DYEAR=2003
DGENRE=Country
TTITLE0=Brooks and Dunn - Red dirt road
TTITLE1=Terri Clark - I just wanna be mad
TTITLE2=Montgomery Gentry - Speed
TTITLE3=Joe Nichols - Brokenheartsville
TTITLE4=Rascal Flatts - I melt
TTITLE5=Toby Keith and Willie Nelson - Beer for my horses
TTITLE6=Patty Loveless - Lovin' all night
TTITLE7=Carl Smith - Let old mother nature have her way
TTITLE8=Tim McGraw - Real good man
TTITLE9=Darryl Worley - Have you forgotten
TTITLE10=Dolly Parton - I'm gone
TTITLE11=Floyd Carmer - Last date
TTITLE12=Alan Jackson and Jimmy Buffet - It's five o'clock somewehre
TTITLE13=Data - Data Track
EXTD=
EXTT0=
EXTT1=
EXTT2=
EXTT3=
EXTT4=
EXTT5=
EXTT6=
EXTT7=
EXTT8=
EXTT9=
EXTT10=
EXTT11=
EXTT12=
EXTT13=
PLAYORDER=
